<svg id="kity_svg_6" xmlns="http://www.w3.org/2000/svg" xmlns:xlink="http://www.w3.org/1999/xlink" version="1.1" width="1305" height="270" style="background: rgb(251, 251, 251); visibility: visible;" viewBox="0 0 1305 270"><defs id="kity_defs_7"><linearGradient id="kity_linearGradient_17" x1="0" y1="0" x2="0" y2="1"><stop id="kity_stop_18" offset="0" stop-color="rgb(255, 255, 255)"></stop><stop id="kity_stop_19" offset="1" stop-color="rgb(204, 204, 204)"></stop></linearGradient><marker id="kity_marker_2" orient="auto" refX="6" refY="0" viewBox="-7 -7 14 14" markerWidth="7" markerHeight="7" markerUnits="userSpaceOnUse"><path id="kity_path_3" fill="rgb(115, 161, 191)" stroke="none" d="M6,0A6,6,0,1,1,-6,0A6,6,0,1,1,6,0"></path></marker></defs><g id="kity_g_8"><g id="minder1" text-rendering="optimize-speed"><g id="minder_connect_group1"><path id="kity_path_31" fill="none" stroke="rgb(115, 161, 191)" stroke-width="1" d="M420,159.5A169.5,0,0,0,1,589.5,159.5"></path><path id="kity_path_39" fill="none" stroke="rgb(115, 161, 191)" stroke-width="1" d="M420,159.5A173.5,0,0,0,1,246.5,159.5"></path><path id="kity_path_47" fill="none" stroke="rgb(115, 161, 191)" stroke-width="1" d="M780.5,159.5C804,159.5,804,107.5,827.5,107.5L979.5,107.5"></path><path id="kity_path_87" fill="none" stroke="rgb(115, 161, 191)" stroke-width="1" d="M780.5,159.5C805,159.5,805,209.5,829.5,209.5L962.5,209.5"></path><path id="kity_path_96" fill="none" stroke="rgb(115, 161, 191)" stroke-width="1" d="M1122.5,107.5C1137.5,107.5,1137.5,107.5,1152.5,107.5L1285.5,107.5"></path><path id="kity_path_97" fill="none" stroke="rgb(115, 161, 191)" stroke-width="1" d="M979.5,107.5C994.5,107.5,994.5,107.5,1009.5,107.5L1122.5,107.5"></path><path id="kity_path_99" fill="none" stroke="rgb(115, 161, 191)" stroke-width="1" d="M145.5,159.5C130.5,159.5,130.5,45.5,115.5,45.5L21.5,45.5"></path><path id="kity_path_107" fill="none" stroke="rgb(115, 161, 191)" stroke-width="1" d="M145.5,159.5C117,159.5,117,165.5,88.5,165.5L20.5,165.5"></path><path id="kity_path_115" fill="none" stroke="rgb(115, 161, 191)" stroke-width="1" d="M145.5,159.5C125,159.5,125,250.5,104.5,250.5L25.5,250.5"></path></g><g id="minder_node1"><path id="node_outline1" fill="rgb(115, 161, 191)" stroke="rgb(115, 161, 191)" d="M369.5,139.5h101a5,5,0,0,1,5,5v30a5,5,0,0,1,-5,5h-101a5,5,0,0,1,-5,-5v-30a5,5,0,0,1,5,-5z" stroke-width="3"></path><g id="node_text1" fill="white"><text id="kity_text_22" text-rendering="inherit" font-size="16" dy=".8em" y="149.09999990463257" x="388.5">Analysis</text></g></g><g id="kity_g_12" display="none"><path id="kity_path_13" fill="none" stroke="none" d="M388.5,159.5h0v0h0z"></path></g><g id="kity_g_14" display="none"><path id="kity_path_15" fill="none" stroke="none" d="M388.5,159.5h0v0h0z"></path><path id="kity_path_16" fill="none" stroke="none"></path></g><g id="minder_node2" opacity="1"><g id="node_expander1" style="cursor: pointer;"><path id="kity_path_36" fill="white" stroke="gray" d="M590.5,159.5A6,6,0,1,1,578.5,159.5A6,6,0,1,1,590.5,159.5"></path><path id="kity_path_37" fill="none" stroke="gray" d="M580,159.5L589,159.5"></path></g><path id="node_outline2" fill="rgb(238, 243, 246)" stroke="rgb(115, 161, 191)" d="M594.5,146.5h183a3,3,0,0,1,3,3v20a3,3,0,0,1,-3,3h-183a3,3,0,0,1,-3,-3v-20a3,3,0,0,1,3,-3z" stroke-width="1"></path><g id="node_text2" fill="black"><text id="kity_text_33" text-rendering="inherit" font-size="14" dy=".8em" y="150.40000009536743" x="611.5">back-end(pre-version)</text></g></g><g id="minder_node3"><g id="node_expander2" style="cursor: pointer;"><path id="kity_path_44" fill="white" stroke="gray" d="M257.5,159.5A6,6,0,1,1,245.5,159.5A6,6,0,1,1,257.5,159.5"></path><path id="kity_path_45" fill="none" stroke="gray" d="M247,159.5L256,159.5"></path></g><path id="node_outline3" fill="rgb(238, 243, 246)" stroke="rgb(115, 161, 191)" d="M148.5,146.5h93a3,3,0,0,1,3,3v20a3,3,0,0,1,-3,3h-93a3,3,0,0,1,-3,-3v-20a3,3,0,0,1,3,-3z" stroke-width="1"></path><g id="node_text3" fill="black"><text id="kity_text_41" text-rendering="inherit" font-size="14" dy=".8em" y="150.40000009536743" x="165.5">font-end</text></g></g><g id="minder_node4" opacity="1"><g id="node_expander3" style="cursor: pointer;"><path id="kity_path_52" fill="white" stroke="gray" d="M837.5,93.5A6,6,0,1,1,825.5,93.5A6,6,0,1,1,837.5,93.5"></path><path id="kity_path_53" fill="none" stroke="gray" d="M827,93.5L836,93.5"></path></g><path id="node_outline4" fill="none" stroke="none" d="M842.5,82.5h132a5,5,0,0,1,5,5v12a5,5,0,0,1,-5,5h-132a5,5,0,0,1,-5,-5v-12a5,5,0,0,1,5,-5z" stroke-width="3"></path><g id="node_text4" fill="black"><text id="kity_text_49" text-rendering="inherit" font-size="12" dy=".8em" y="85.70000004768372" x="847.5">QueryList分析website</text></g></g><g id="minder_node9" opacity="1"><g id="node_expander8" style="cursor: pointer;" display="none"><path id="kity_path_92" fill="white" stroke="gray" d="M839.5,195.5A6,6,0,1,1,827.5,195.5A6,6,0,1,1,839.5,195.5"></path><path id="kity_path_93" fill="none" stroke="gray"></path></g><path id="node_outline9" fill="none" stroke="none" d="M844.5,184.5h113a5,5,0,0,1,5,5v12a5,5,0,0,1,-5,5h-113a5,5,0,0,1,-5,-5v-12a5,5,0,0,1,5,-5z" stroke-width="3"></path><g id="node_text9" fill="black"><text id="kity_text_89" text-rendering="inherit" font-size="12" dy=".8em" y="187.70000004768372" x="849.5">QueryList分析文本</text></g></g><g id="minder_node8"><g id="node_expander7" style="cursor: pointer;" display="none"><path id="kity_path_84" fill="white" stroke="gray" d="M1162.5,93.5A6,6,0,1,1,1150.5,93.5A6,6,0,1,1,1162.5,93.5"></path><path id="kity_path_85" fill="none" stroke="gray"></path></g><path id="node_outline8" fill="none" stroke="none" d="M1167.5,82.5h113a5,5,0,0,1,5,5v12a5,5,0,0,1,-5,5h-113a5,5,0,0,1,-5,-5v-12a5,5,0,0,1,5,-5z" stroke-width="3"></path><g id="node_text8" fill="black"><text id="kity_text_81" text-rendering="inherit" font-size="12" dy=".8em" y="85.70000004768372" x="1172.5">权重排序/过滤数据</text></g></g><g id="minder_node7"><g id="node_expander6" style="cursor: pointer;"><path id="kity_path_76" fill="white" stroke="gray" d="M1019.5,93.5A6,6,0,1,1,1007.5,93.5A6,6,0,1,1,1019.5,93.5"></path><path id="kity_path_77" fill="none" stroke="gray" d="M1009,93.5L1018,93.5"></path></g><path id="node_outline7" fill="none" stroke="none" d="M1024.5,82.5h93a5,5,0,0,1,5,5v12a5,5,0,0,1,-5,5h-93a5,5,0,0,1,-5,-5v-12a5,5,0,0,1,5,-5z" stroke-width="3"></path><g id="node_text7" fill="black"><text id="kity_text_73" text-rendering="inherit" font-size="12" dy=".8em" y="85.70000004768372" x="1029.5">SCWS分析词组</text></g></g><g id="minder_node10" opacity="1"><g id="node_expander9" style="cursor: pointer;" display="none"><path id="kity_path_104" fill="white" stroke="gray" d="M117.5,31.5A6,6,0,1,1,105.5,31.5A6,6,0,1,1,117.5,31.5"></path><path id="kity_path_105" fill="none" stroke="gray"></path></g><path id="node_outline10" fill="none" stroke="none" d="M26.5,20.5h74a5,5,0,0,1,5,5v12a5,5,0,0,1,-5,5h-74a5,5,0,0,1,-5,-5v-12a5,5,0,0,1,5,-5z" stroke-width="3"></path><g id="node_text10" fill="black"><text id="kity_text_101" text-rendering="inherit" font-size="12" dy=".8em" y="23.700000047683716" x="31.5">Heater图表</text></g></g><g id="minder_node11" opacity="1"><g id="node_expander10" style="cursor: pointer;" display="none"><path id="kity_path_112" fill="white" stroke="gray" d="M90.5,151.5A6,6,0,1,1,78.5,151.5A6,6,0,1,1,90.5,151.5"></path><path id="kity_path_113" fill="none" stroke="gray"></path></g><path id="node_outline11" fill="none" stroke="none" d="M25.5,140.5h48a5,5,0,0,1,5,5v12a5,5,0,0,1,-5,5h-48a5,5,0,0,1,-5,-5v-12a5,5,0,0,1,5,-5z" stroke-width="3"></path><g id="node_text11" fill="black"><text id="kity_text_109" text-rendering="inherit" font-size="12" dy=".8em" y="143.70000004768372" x="30.5">标签云</text></g></g><g id="minder_node12" opacity="1"><g id="node_expander11" style="cursor: pointer;" display="none"><path id="kity_path_120" fill="white" stroke="gray" d="M106.5,236.5A6,6,0,1,1,94.5,236.5A6,6,0,1,1,106.5,236.5"></path><path id="kity_path_121" fill="none" stroke="gray"></path></g><path id="node_outline12" fill="none" stroke="none" d="M30.5,225.5h59a5,5,0,0,1,5,5v12a5,5,0,0,1,-5,5h-59a5,5,0,0,1,-5,-5v-12a5,5,0,0,1,5,-5z" stroke-width="3"></path><g id="node_text12" fill="black"><text id="kity_text_117" text-rendering="inherit" font-size="12" dy=".8em" y="228.70000004768372" x="35.5">普通词组</text></g></g></g></g></svg>