<svg id="kity_svg_6" xmlns="http://www.w3.org/2000/svg" xmlns:xlink="http://www.w3.org/1999/xlink" version="1.1" width="1624" height="363" style="background: rgb(251, 251, 251); visibility: visible;" viewBox="0 0 1624 363"><defs id="kity_defs_7"><linearGradient id="kity_linearGradient_17" x1="0" y1="0" x2="0" y2="1"><stop id="kity_stop_18" offset="0" stop-color="rgb(255, 255, 255)"></stop><stop id="kity_stop_19" offset="1" stop-color="rgb(204, 204, 204)"></stop></linearGradient><marker id="kity_marker_2" orient="auto" refX="6" refY="0" viewBox="-7 -7 14 14" markerWidth="7" markerHeight="7" markerUnits="userSpaceOnUse"><path id="kity_path_3" fill="rgb(115, 161, 191)" stroke="none" d="M6,0A6,6,0,1,1,-6,0A6,6,0,1,1,6,0"></path></marker></defs><g id="kity_g_8"><g id="minder1" text-rendering="optimize-speed"><g id="minder_connect_group1"><path id="kity_path_31" fill="none" stroke="rgb(115, 161, 191)" stroke-width="1" d="M420,192.5A164.5,0,0,0,1,584.5,192.5"></path><path id="kity_path_41" fill="none" stroke="rgb(115, 161, 191)" stroke-width="1" d="M420,192.5A173.5,0,0,0,1,246.5,192.5"></path><path id="kity_path_43" fill="none" stroke="rgb(115, 161, 191)" stroke-width="1" d="M145.5,192.5C130.5,192.5,130.5,78.5,115.5,78.5L21.5,78.5"></path><path id="kity_path_45" fill="none" stroke="rgb(115, 161, 191)" stroke-width="1" d="M145.5,192.5C117,192.5,117,198.5,88.5,198.5L20.5,198.5"></path><path id="kity_path_47" fill="none" stroke="rgb(115, 161, 191)" stroke-width="1" d="M145.5,192.5C125,192.5,125,283.5,104.5,283.5L25.5,283.5"></path><path id="kity_path_140" fill="none" stroke="rgb(115, 161, 191)" stroke-width="1" d="M775.5,192.5C806.5,192.5,806.5,339.5,837.5,339.5L941.5,339.5"></path><path id="kity_path_141" fill="none" stroke="rgb(115, 161, 191)" stroke-width="1" d="M775.5,192.5C810,192.5,810,55.5,844.5,55.5L1062.5,55.5"></path><path id="kity_path_173" fill="none" stroke="rgb(115, 161, 191)" stroke-width="1" d="M775.5,192.5C805.5,192.5,805.5,190.5,835.5,190.5L1024.5,190.5"></path><path id="kity_path_180" fill="none" stroke="rgb(115, 161, 191)" stroke-width="1" d="M1391.5,56.5C1402.5,56.5,1402.5,58.5,1413.5,58.5L1546.5,58.5"></path><path id="kity_path_181" fill="none" stroke="rgb(115, 161, 191)" stroke-width="1" d="M1248.5,56.5C1263.5,56.5,1263.5,56.5,1278.5,56.5L1391.5,56.5"></path><path id="kity_path_182" fill="none" stroke="rgb(115, 161, 191)" stroke-width="1" d="M1062.5,55.5C1079.5,55.5,1079.5,56.5,1096.5,56.5L1248.5,56.5"></path><path id="kity_path_185" fill="none" stroke="rgb(115, 161, 191)" stroke-width="1" d="M941.5,339.5C981,339.5,981,340.5,1020.5,340.5L1172.5,340.5"></path><path id="kity_path_188" fill="none" stroke="rgb(115, 161, 191)" stroke-width="1" d="M1024.5,190.5C1039.5,190.5,1039.5,188.5,1054.5,188.5L1257.5,188.5"></path><path id="kity_path_200" fill="none" stroke="rgb(115, 161, 191)" stroke-width="1" d="M1336.5,343.5C1351.5,343.5,1351.5,340.5,1366.5,340.5L1511.5,340.5"></path><path id="kity_path_201" fill="none" stroke="rgb(115, 161, 191)" stroke-width="1" d="M1172.5,340.5C1187.5,340.5,1187.5,343.5,1202.5,343.5L1336.5,343.5"></path><path id="kity_path_225" fill="none" stroke="rgb(115, 161, 191)" stroke-width="1" d="M1511.5,340.5C1520,340.5,1520,341.5,1528.5,341.5L1604.5,341.5"></path></g><g id="minder_node1"><path id="node_outline1" fill="rgb(115, 161, 191)" stroke="rgb(115, 161, 191)" d="M369.5,172.5h101a5,5,0,0,1,5,5v30a5,5,0,0,1,-5,5h-101a5,5,0,0,1,-5,-5v-30a5,5,0,0,1,5,-5z" stroke-width="3"></path><g id="node_text1" fill="white"><text id="kity_text_22" text-rendering="inherit" font-size="16" dy=".8em" y="182.09999990463257" x="388.5">Analysis</text></g></g><g id="kity_g_14" display="none"><path id="kity_path_15" fill="rgba(0, 92, 153, 0.5)" stroke="none" d="M820.5,122.5h78v15h-78z"></path><path id="kity_path_16" fill="none" stroke="rgb(0, 76, 128)" d="M820.5,137.5L898.5,137.5" stroke-width="1"></path></g><g id="minder_node2" opacity="1"><g id="node_expander5" style="cursor: pointer;"><path id="kity_path_88" fill="white" stroke="gray" d="M585.5,192.5A6,6,0,1,1,573.5,192.5A6,6,0,1,1,585.5,192.5"></path><path id="kity_path_89" fill="none" stroke="gray" d="M575,192.5L584,192.5"></path></g><path id="node_outline6" fill="rgb(238, 243, 246)" stroke="rgb(115, 161, 191)" d="M589.5,179.5h183a3,3,0,0,1,3,3v20a3,3,0,0,1,-3,3h-183a3,3,0,0,1,-3,-3v-20a3,3,0,0,1,3,-3z" stroke-width="1"></path><g id="node_text6" fill="black"><text id="kity_text_57" text-rendering="inherit" font-size="14" dy=".8em" y="183.40000009536743" x="606.5">back-end(pre-version)</text></g></g><g id="minder_node7"><g id="node_expander9" style="cursor: pointer;"><path id="kity_path_100" fill="white" stroke="gray" d="M257.5,192.5A6,6,0,1,1,245.5,192.5A6,6,0,1,1,257.5,192.5"></path><path id="kity_path_101" fill="none" stroke="gray" d="M247,192.5L256,192.5"></path></g><path id="node_outline10" fill="rgb(238, 243, 246)" stroke="rgb(115, 161, 191)" d="M148.5,179.5h93a3,3,0,0,1,3,3v20a3,3,0,0,1,-3,3h-93a3,3,0,0,1,-3,-3v-20a3,3,0,0,1,3,-3z" stroke-width="1"></path><g id="node_text10" fill="black"><text id="kity_text_65" text-rendering="inherit" font-size="14" dy=".8em" y="183.40000009536743" x="165.5">font-end</text></g></g><g id="minder_node8"><g id="node_expander6" style="cursor: pointer;" display="none"><path id="kity_path_91" fill="white" stroke="gray" d="M117.5,64.5A6,6,0,1,1,105.5,64.5A6,6,0,1,1,117.5,64.5"></path><path id="kity_path_92" fill="none" stroke="gray"></path></g><path id="node_outline7" fill="none" stroke="none" d="M26.5,53.5h74a5,5,0,0,1,5,5v12a5,5,0,0,1,-5,5h-74a5,5,0,0,1,-5,-5v-12a5,5,0,0,1,5,-5z"></path><g id="node_text7" fill="black"><text id="kity_text_59" text-rendering="inherit" font-size="12" dy=".8em" y="56.700000047683716" x="31.5">Heater图表</text></g></g><g id="minder_node9"><g id="node_expander7" style="cursor: pointer;" display="none"><path id="kity_path_94" fill="white" stroke="gray" d="M90.5,184.5A6,6,0,1,1,78.5,184.5A6,6,0,1,1,90.5,184.5"></path><path id="kity_path_95" fill="none" stroke="gray"></path></g><path id="node_outline8" fill="none" stroke="none" d="M25.5,173.5h48a5,5,0,0,1,5,5v12a5,5,0,0,1,-5,5h-48a5,5,0,0,1,-5,-5v-12a5,5,0,0,1,5,-5z"></path><g id="node_text8" fill="black"><text id="kity_text_61" text-rendering="inherit" font-size="12" dy=".8em" y="176.70000004768372" x="30.5">标签云</text></g></g><g id="minder_node10"><g id="node_expander8" style="cursor: pointer;" display="none"><path id="kity_path_97" fill="white" stroke="gray" d="M106.5,269.5A6,6,0,1,1,94.5,269.5A6,6,0,1,1,106.5,269.5"></path><path id="kity_path_98" fill="none" stroke="gray"></path></g><path id="node_outline9" fill="none" stroke="none" d="M30.5,258.5h59a5,5,0,0,1,5,5v12a5,5,0,0,1,-5,5h-59a5,5,0,0,1,-5,-5v-12a5,5,0,0,1,5,-5z"></path><g id="node_text9" fill="black"><text id="kity_text_63" text-rendering="inherit" font-size="12" dy=".8em" y="261.7000000476837" x="35.5">普通词组</text></g></g><g id="kity_g_12" display="none"><path id="kity_path_13" fill="none" stroke="rgb(66, 94, 112)" d="M825.5,142.5h68a5,5,0,0,1,5,5v12a5,5,0,0,1,-5,5h-68a5,5,0,0,1,-5,-5v-12a5,5,0,0,1,5,-5z" stroke-width="5"></path></g><g id="minder_node11" opacity="1"><g id="node_expander10" style="cursor: pointer;"><path id="kity_path_108" fill="white" stroke="gray" d="M847.5,325.5A6,6,0,1,1,835.5,325.5A6,6,0,1,1,847.5,325.5"></path><path id="kity_path_109" fill="none" stroke="gray" d="M837,325.5L846,325.5"></path></g><path id="node_outline11" fill="none" stroke="none" d="M852.5,314.5h84a5,5,0,0,1,5,5v12a5,5,0,0,1,-5,5h-84a5,5,0,0,1,-5,-5v-12a5,5,0,0,1,5,-5z" stroke-width="3"></path><g id="node_text11" fill="black"><text id="kity_text_105" text-rendering="inherit" font-size="12" dy=".8em" y="317.7000000476837" x="857.5">方案3（GD）</text></g></g><g id="minder_node6" opacity="1"><g id="node_expander4" style="cursor: pointer;"><path id="kity_path_85" fill="white" stroke="gray" d="M854.5,36.5A6,6,0,1,1,842.5,36.5A6,6,0,1,1,854.5,36.5"></path><path id="kity_path_86" fill="none" stroke="gray" d="M844,36.5L853,36.5"></path></g><path id="node_outline5" fill="none" stroke="none" d="M859.5,20.5h198a5,5,0,0,1,5,5v22a5,5,0,0,1,-5,5h-198a5,5,0,0,1,-5,-5v-22a5,5,0,0,1,5,-5z" stroke-width="3"></path><g id="node_text5" fill="black"><text id="kity_text_55" text-rendering="inherit" font-size="12" dy=".8em" y="28.700000047683716" x="864.5">方案1（提取文字&amp;权重）</text></g><a id="kity_a_122" xmlns:xlink="http://www.w3.org/1999/xlink" xlink:href="https://www.jasondavies.com/wordcloud/" target="_blank" xlink:title="https://www.jasondavies.com/wordcloud/" style="cursor: pointer;"><path id="kity_path_124" fill="rgba(255, 255, 255, 0)" stroke="none" d="M1011.5,25.5h16a4,4,0,0,1,4,4v14a4,4,0,0,1,-4,4h-16a4,4,0,0,1,-4,-4v-14a4,4,0,0,1,4,-4z"></path><path id="kity_path_123" fill="#666" stroke="none" d="M1026.114,41.724000000000004h-1.278c-1.668,0,-3.07,-1.07,-3.599,-2.556h4.877c0.707,0,1.278,-0.571,1.278,-1.278V35.334c0,-0.707,-0.571,-1.278,-1.278,-1.278h-4.877C1021.766,32.571,1023.168,31.5,1024.836,31.5h1.278c2.116,0,3.834,1.716,3.834,3.834V37.89C1029.948,40.007999999999996,1028.23,41.724000000000004,1026.114,41.724000000000004zM1014.612,36.612c0,-0.707,0.573,-1.278,1.278,-1.278h7.668c0.707,0,1.278,0.571,1.278,1.278S1024.265,37.89,1023.558,37.89H1015.89C1015.185,37.89,1014.612,37.319,1014.612,36.612zM1012.056,35.334V37.89c0,0.707,0.573,1.278,1.278,1.278h4.877c-0.528,1.486,-1.932,2.556,-3.599,2.556H1013.334C1011.216,41.724000000000004,1009.5,40.007999999999996,1009.5,37.89V35.334C1009.5,33.216,1011.216,31.5,1013.334,31.5h1.278c1.667,0,3.071,1.071,3.599,2.556H1013.334C1012.629,34.056,1012.056,34.627,1012.056,35.334z"></path></a><g id="kity_g_125" style="cursor: pointer;"><path id="kity_path_126" fill="none" stroke="none" d="M1039,28h12a2,2,0,0,1,2,2v13a2,2,0,0,1,-2,2h-12a2,2,0,0,1,-2,-2v-13a2,2,0,0,1,2,-2z"></path><path id="kity_path_127" fill="black" stroke="none" d="M1048,39H1042V38h6L1048,39L1048,39zM1048,37H1042V36h6V37zM1048,35H1042V34h6V35zM1047.5,41H1041V32h8v7.5M1048,42l2,-2V31H1040v11"></path></g></g><g id="minder_node16" opacity="1"><g id="node_expander15" style="cursor: pointer;"><path id="kity_path_178" fill="white" stroke="gray" d="M845.5,174A6,6,0,1,1,833.5,174A6,6,0,1,1,845.5,174"></path><path id="kity_path_179" fill="none" stroke="gray" d="M835,174L844,174"></path></g><path id="node_outline16" fill="none" stroke="none" d="M850.5,160.5h169a5,5,0,0,1,5,5v17a5,5,0,0,1,-5,5h-169a5,5,0,0,1,-5,-5v-17a5,5,0,0,1,5,-5z" stroke-width="3"></path><g id="node_text16" fill="black"><text id="kity_text_175" text-rendering="inherit" font-size="12" dy=".8em" y="165.70000004768372" x="855.5">方案2（提取文字&amp;权重）</text></g><g id="kity_g_195" style="cursor: pointer;"><path id="kity_path_196" fill="none" stroke="none" d="M1001,165h12a2,2,0,0,1,2,2v13a2,2,0,0,1,-2,2h-12a2,2,0,0,1,-2,-2v-13a2,2,0,0,1,2,-2z"></path><path id="kity_path_197" fill="black" stroke="none" d="M1010,176H1004V175h6L1010,176L1010,176zM1010,174H1004V173h6V174zM1010,172H1004V171h6V172zM1009.5,178H1003V169h8v7.5M1010,179l2,-2V168H1002v11"></path></g></g><g id="minder_node15" opacity="1"><g id="node_expander14" style="cursor: pointer;" display="none"><path id="kity_path_164" fill="white" stroke="gray" d="M1423.5,44.5A6,6,0,1,1,1411.5,44.5A6,6,0,1,1,1423.5,44.5"></path><path id="kity_path_165" fill="none" stroke="gray"></path></g><path id="node_outline15" fill="none" stroke="none" d="M1428.5,33.5h113a5,5,0,0,1,5,5v12a5,5,0,0,1,-5,5h-113a5,5,0,0,1,-5,-5v-12a5,5,0,0,1,5,-5z" stroke-width="3"></path><g id="node_text15" fill="black"><text id="kity_text_161" text-rendering="inherit" font-size="12" dy=".8em" y="36.700000047683716" x="1433.5">权重排序/过滤数据</text></g></g><g id="minder_node14"><g id="node_expander13" style="cursor: pointer;"><path id="kity_path_156" fill="white" stroke="gray" d="M1288.5,42.5A6,6,0,1,1,1276.5,42.5A6,6,0,1,1,1288.5,42.5"></path><path id="kity_path_157" fill="none" stroke="gray" d="M1278,42.5L1287,42.5"></path></g><path id="node_outline14" fill="none" stroke="none" d="M1293.5,31.5h93a5,5,0,0,1,5,5v12a5,5,0,0,1,-5,5h-93a5,5,0,0,1,-5,-5v-12a5,5,0,0,1,5,-5z" stroke-width="3"></path><g id="node_text14" fill="black"><text id="kity_text_153" text-rendering="inherit" font-size="12" dy=".8em" y="34.700000047683716" x="1298.5">SCWS分析词组</text></g></g><g id="minder_node13" opacity="1"><g id="node_expander12" style="cursor: pointer;"><path id="kity_path_148" fill="white" stroke="gray" d="M1106.5,42.5A6,6,0,1,1,1094.5,42.5A6,6,0,1,1,1106.5,42.5"></path><path id="kity_path_149" fill="none" stroke="gray" d="M1096,42.5L1105,42.5"></path></g><path id="node_outline13" fill="none" stroke="none" d="M1111.5,31.5h132a5,5,0,0,1,5,5v12a5,5,0,0,1,-5,5h-132a5,5,0,0,1,-5,-5v-12a5,5,0,0,1,5,-5z" stroke-width="3"></path><g id="node_text13" fill="black"><text id="kity_text_145" text-rendering="inherit" font-size="12" dy=".8em" y="34.700000047683716" x="1116.5">QueryList分析website</text></g></g><g id="minder_node3" opacity="1"><g id="node_expander3" style="cursor: pointer;"><path id="kity_path_82" fill="white" stroke="gray" d="M1030.5,326.5A6,6,0,1,1,1018.5,326.5A6,6,0,1,1,1030.5,326.5"></path><path id="kity_path_83" fill="none" stroke="gray" d="M1020,326.5L1029,326.5"></path></g><path id="node_outline4" fill="none" stroke="none" d="M1035.5,315.5h132a5,5,0,0,1,5,5v12a5,5,0,0,1,-5,5h-132a5,5,0,0,1,-5,-5v-12a5,5,0,0,1,5,-5z" stroke-width="3"></path><g id="node_text4" fill="black"><text id="kity_text_53" text-rendering="inherit" font-size="12" dy=".8em" y="318.7000000476837" x="1040.5">QueryList分析website</text></g></g><g id="minder_node17"><g id="node_expander16" style="cursor: pointer;" display="none"><path id="kity_path_193" fill="white" stroke="gray" d="M1064.5,174.5A6,6,0,1,1,1052.5,174.5A6,6,0,1,1,1064.5,174.5"></path><path id="kity_path_194" fill="none" stroke="gray"></path></g><path id="node_outline17" fill="none" stroke="none" d="M1069.5,163.5h183a5,5,0,0,1,5,5v12a5,5,0,0,1,-5,5h-183a5,5,0,0,1,-5,-5v-12a5,5,0,0,1,5,-5z" stroke-width="3"></path><g id="node_text17" fill="black"><text id="kity_text_190" text-rendering="inherit" font-size="12" dy=".8em" y="166.70000004768372" x="1074.5">同上并生成txt or word权重文档</text></g></g><g id="minder_node5" opacity="1"><g id="node_expander1" style="cursor: pointer;"><path id="kity_path_76" fill="white" stroke="gray" d="M1376.5,326.5A6,6,0,1,1,1364.5,326.5A6,6,0,1,1,1376.5,326.5"></path><path id="kity_path_77" fill="none" stroke="gray" d="M1366,326.5L1375,326.5"></path></g><path id="node_outline2" fill="none" stroke="none" d="M1381.5,315.5h125a5,5,0,0,1,5,5v12a5,5,0,0,1,-5,5h-125a5,5,0,0,1,-5,-5v-12a5,5,0,0,1,5,-5z" stroke-width="3"></path><g id="node_text2" fill="black"><text id="kity_text_49" text-rendering="inherit" font-size="12" dy=".8em" y="318.7000000476837" x="1386.5">设置GD库表单初始化</text></g></g><g id="minder_node4"><g id="node_expander2" style="cursor: pointer;"><path id="kity_path_79" fill="white" stroke="gray" d="M1212.5,327A6,6,0,1,1,1200.5,327A6,6,0,1,1,1212.5,327"></path><path id="kity_path_80" fill="none" stroke="gray" d="M1202,327L1211,327"></path></g><path id="node_outline3" fill="none" stroke="none" d="M1217.5,313.5h114a5,5,0,0,1,5,5v17a5,5,0,0,1,-5,5h-114a5,5,0,0,1,-5,-5v-17a5,5,0,0,1,5,-5z" stroke-width="3"></path><g id="node_text3" fill="black"><text id="kity_text_51" text-rendering="inherit" font-size="12" dy=".8em" y="318.7000000476837" x="1222.5">SCWS分析词组</text></g><g id="kity_g_210" style="cursor: pointer;"><path id="kity_path_211" fill="none" stroke="none" d="M1313,318h12a2,2,0,0,1,2,2v13a2,2,0,0,1,-2,2h-12a2,2,0,0,1,-2,-2v-13a2,2,0,0,1,2,-2z"></path><path id="kity_path_212" fill="black" stroke="none" d="M1322,329H1316V328h6L1322,329L1322,329zM1322,327H1316V326h6V327zM1322,325H1316V324h6V325zM1321.5,331H1315V322h8v7.5M1322,332l2,-2V321H1314v11"></path></g></g><g id="minder_node19" opacity="1"><g id="node_expander18" style="cursor: pointer;" display="none"><path id="kity_path_219" fill="white" stroke="gray" d="M1538.5,325A6,6,0,1,1,1526.5,325A6,6,0,1,1,1538.5,325"></path><path id="kity_path_220" fill="none" stroke="gray"></path></g><path id="node_outline19" fill="none" stroke="none" d="M1543.5,311.5h56a5,5,0,0,1,5,5v17a5,5,0,0,1,-5,5h-56a5,5,0,0,1,-5,-5v-17a5,5,0,0,1,5,-5z" stroke-width="3"></path><g id="node_text19" fill="black"><text id="kity_text_216" text-rendering="inherit" font-size="12" dy=".8em" y="316.7000000476837" x="1548.5">绘图</text></g><g id="kity_g_221" style="cursor: pointer;"><path id="kity_path_222" fill="none" stroke="none" d="M1581,316h12a2,2,0,0,1,2,2v13a2,2,0,0,1,-2,2h-12a2,2,0,0,1,-2,-2v-13a2,2,0,0,1,2,-2z"></path><path id="kity_path_223" fill="black" stroke="none" d="M1590,327H1584V326h6L1590,327L1590,327zM1590,325H1584V324h6V325zM1590,323H1584V322h6V323zM1589.5,329H1583V320h8v7.5M1590,330l2,-2V319H1582v11"></path></g></g></g></g></svg>