<svg id="kity_svg_6" xmlns="http://www.w3.org/2000/svg" xmlns:xlink="http://www.w3.org/1999/xlink" version="1.1" width="1299" height="282" style="background: rgb(251, 251, 251); visibility: visible;" viewBox="0 0 1299 282"><defs id="kity_defs_7"><linearGradient id="kity_linearGradient_17" x1="0" y1="0" x2="0" y2="1"><stop id="kity_stop_18" offset="0" stop-color="rgb(255, 255, 255)"></stop><stop id="kity_stop_19" offset="1" stop-color="rgb(204, 204, 204)"></stop></linearGradient><marker id="kity_marker_2" orient="auto" refX="6" refY="0" viewBox="-7 -7 14 14" markerWidth="7" markerHeight="7" markerUnits="userSpaceOnUse"><path id="kity_path_3" fill="rgb(115, 161, 191)" stroke="none" d="M6,0A6,6,0,1,1,-6,0A6,6,0,1,1,6,0"></path></marker></defs><g id="kity_g_8"><g id="minder1" text-rendering="optimize-speed"><g id="minder_connect_group1"><path id="kity_path_31" fill="none" stroke="rgb(115, 161, 191)" stroke-width="1" d="M503,229.5A211.5,0,0,0,1,714.5,229.5"></path><path id="kity_path_39" fill="none" stroke="rgb(115, 161, 191)" stroke-width="1" d="M503,229.5A245.5,0,0,0,1,257.5,229.5"></path><path id="kity_path_47" fill="none" stroke="rgb(115, 161, 191)" stroke-width="1" d="M933.5,229.5C949.5,229.5,949.5,113.5,965.5,113.5L1120.5,113.5"></path><path id="kity_path_55" fill="none" stroke="rgb(115, 161, 191)" stroke-width="1" d="M933.5,229.5C956.5,229.5,956.5,262.5,979.5,262.5L1071.5,262.5"></path><path id="kity_path_71" fill="none" stroke="rgb(115, 161, 191)" stroke-width="1" d="M1120.5,113.5C1132.5,113.5,1132.5,45.5,1144.5,45.5L1276.5,45.5"></path><path id="kity_path_79" fill="none" stroke="rgb(115, 161, 191)" stroke-width="1" d="M1120.5,113.5C1136,113.5,1136,146.5,1151.5,146.5L1279.5,146.5"></path><path id="kity_path_87" fill="none" stroke="rgb(115, 161, 191)" stroke-width="1" d="M1071.5,262.5C1094,262.5,1094,262.5,1116.5,262.5L1170.5,262.5"></path><path id="kity_path_95" fill="none" stroke="rgb(115, 161, 191)" stroke-width="1" d="M153.5,229.5C118,229.5,118,239.5,82.5,239.5L20.5,239.5"></path></g><g id="minder_node1"><path id="node_outline1" fill="rgb(115, 161, 191)" stroke="rgb(115, 161, 191)" d="M462.5,209.5h81a5,5,0,0,1,5,5v30a5,5,0,0,1,-5,5h-81a5,5,0,0,1,-5,-5v-30a5,5,0,0,1,5,-5z" stroke-width="3"></path><g id="node_text1" fill="white"><text id="kity_text_22" text-rendering="inherit" font-size="16" dy=".8em" y="219.09999990463257" x="481.5">Claire</text></g></g><g id="kity_g_12" display="none"><path id="kity_path_13" fill="none" stroke="none" d="M481.5,229.5h0v0h0z"></path></g><g id="kity_g_14" display="none"><path id="kity_path_15" fill="none" stroke="none" d="M481.5,229.5h0v0h0z"></path><path id="kity_path_16" fill="none" stroke="none"></path></g><g id="minder_node2" opacity="1"><g id="node_expander1" style="cursor: pointer;"><path id="kity_path_36" fill="white" stroke="gray" d="M715.5,229.5A6,6,0,1,1,703.5,229.5A6,6,0,1,1,715.5,229.5"></path><path id="kity_path_37" fill="none" stroke="gray" d="M705,229.5L714,229.5"></path></g><path id="node_outline2" fill="rgb(238, 243, 246)" stroke="rgb(115, 161, 191)" d="M719.5,216.5h211a3,3,0,0,1,3,3v20a3,3,0,0,1,-3,3h-211a3,3,0,0,1,-3,-3v-20a3,3,0,0,1,3,-3z" stroke-width="1"></path><g id="node_text2" fill="black"><text id="kity_text_33" text-rendering="inherit" font-size="14" dy=".8em" y="220.40000009536743" x="736.5">Back-End（Alexa-Admin）</text></g></g><g id="minder_node3" opacity="1"><g id="node_expander2" style="cursor: pointer;"><path id="kity_path_44" fill="white" stroke="gray" d="M268.5,229.5A6,6,0,1,1,256.5,229.5A6,6,0,1,1,268.5,229.5"></path><path id="kity_path_45" fill="none" stroke="gray" d="M258,229.5L267,229.5"></path></g><path id="node_outline3" fill="rgb(238, 243, 246)" stroke="rgb(115, 161, 191)" d="M156.5,216.5h96a3,3,0,0,1,3,3v20a3,3,0,0,1,-3,3h-96a3,3,0,0,1,-3,-3v-20a3,3,0,0,1,3,-3z" stroke-width="1"></path><g id="node_text3" fill="black"><text id="kity_text_41" text-rendering="inherit" font-size="14" dy=".8em" y="220.40000009536743" x="173.5">Font-End</text></g></g><g id="minder_node4" opacity="1"><g id="node_expander3" style="cursor: pointer;"><path id="kity_path_52" fill="white" stroke="gray" d="M975.5,99.5A6,6,0,1,1,963.5,99.5A6,6,0,1,1,975.5,99.5"></path><path id="kity_path_53" fill="none" stroke="gray" d="M965,99.5L974,99.5"></path></g><path id="node_outline4" fill="none" stroke="none" d="M980.5,88.5h135a5,5,0,0,1,5,5v12a5,5,0,0,1,-5,5h-135a5,5,0,0,1,-5,-5v-12a5,5,0,0,1,5,-5z" stroke-width="3"></path><g id="node_text4" fill="black"><text id="kity_text_49" text-rendering="inherit" font-size="12" dy=".8em" y="91.70000004768372" x="985.5">自动爬取（URL loop）</text></g></g><g id="minder_node5" opacity="1"><g id="node_expander4" style="cursor: pointer;"><path id="kity_path_60" fill="white" stroke="gray" d="M989.5,248.5A6,6,0,1,1,977.5,248.5A6,6,0,1,1,989.5,248.5"></path><path id="kity_path_61" fill="none" stroke="gray" d="M979,248.5L988,248.5"></path></g><path id="node_outline5" fill="none" stroke="none" d="M994.5,237.5h72a5,5,0,0,1,5,5v12a5,5,0,0,1,-5,5h-72a5,5,0,0,1,-5,-5v-12a5,5,0,0,1,5,-5z" stroke-width="3"></path><g id="node_text5" fill="black"><text id="kity_text_57" text-rendering="inherit" font-size="12" dy=".8em" y="240.70000004768372" x="999.5">可视化爬取</text></g></g><g id="minder_node7" opacity="1"><g id="node_expander6" style="cursor: pointer;" display="none"><path id="kity_path_76" fill="white" stroke="gray" d="M1154.5,31.5A6,6,0,1,1,1142.5,31.5A6,6,0,1,1,1154.5,31.5"></path><path id="kity_path_77" fill="none" stroke="gray"></path></g><path id="node_outline7" fill="none" stroke="none" d="M1159.5,20.5h112a5,5,0,0,1,5,5v12a5,5,0,0,1,-5,5h-112a5,5,0,0,1,-5,-5v-12a5,5,0,0,1,5,-5z" stroke-width="3"></path><g id="node_text7" fill="black"><text id="kity_text_73" text-rendering="inherit" font-size="12" dy=".8em" y="23.700000047683716" x="1164.5">爬取深度（page）</text></g></g><g id="minder_node8" opacity="1"><g id="node_expander7" style="cursor: pointer;" display="none"><path id="kity_path_84" fill="white" stroke="gray" d="M1161.5,132.5A6,6,0,1,1,1149.5,132.5A6,6,0,1,1,1161.5,132.5"></path><path id="kity_path_85" fill="none" stroke="gray"></path></g><path id="node_outline8" fill="none" stroke="none" d="M1166.5,121.5h108a5,5,0,0,1,5,5v12a5,5,0,0,1,-5,5h-108a5,5,0,0,1,-5,-5v-12a5,5,0,0,1,5,-5z" stroke-width="3"></path><g id="node_text8" fill="black"><text id="kity_text_81" text-rendering="inherit" font-size="12" dy=".8em" y="124.70000004768372" x="1171.5">爬取数量（limit）</text></g></g><g id="minder_node9" opacity="1"><g id="node_expander8" style="cursor: pointer;" display="none"><path id="kity_path_92" fill="white" stroke="gray" d="M1126.5,248.5A6,6,0,1,1,1114.5,248.5A6,6,0,1,1,1126.5,248.5"></path><path id="kity_path_93" fill="none" stroke="gray"></path></g><path id="node_outline9" fill="none" stroke="none" d="M1131.5,237.5h34a5,5,0,0,1,5,5v12a5,5,0,0,1,-5,5h-34a5,5,0,0,1,-5,-5v-12a5,5,0,0,1,5,-5z" stroke-width="3"></path><g id="node_text9" fill="black"><text id="kity_text_89" text-rendering="inherit" font-size="12" dy=".8em" y="240.70000004768372" x="1136.5">同上</text></g></g><g id="minder_node10" opacity="1"><g id="node_expander9" style="cursor: pointer;" display="none"><path id="kity_path_100" fill="white" stroke="gray" d="M84.5,225.5A6,6,0,1,1,72.5,225.5A6,6,0,1,1,84.5,225.5"></path><path id="kity_path_101" fill="none" stroke="gray"></path></g><path id="node_outline10" fill="none" stroke="none" d="M25.5,214.5h42a5,5,0,0,1,5,5v12a5,5,0,0,1,-5,5h-42a5,5,0,0,1,-5,-5v-12a5,5,0,0,1,5,-5z" stroke-width="3"></path><g id="node_text10" fill="black"><text id="kity_text_97" text-rendering="inherit" font-size="12" dy=".8em" y="217.70000004768372" x="30.5">VIEW</text></g></g></g></g></svg>