<svg id="kity_svg_6" xmlns="http://www.w3.org/2000/svg" xmlns:xlink="http://www.w3.org/1999/xlink" version="1.1" width="1408" height="390" style="background: rgb(251, 251, 251); visibility: visible;" viewBox="0 0 1408 390"><defs id="kity_defs_7"><linearGradient id="kity_linearGradient_17" x1="0" y1="0" x2="0" y2="1"><stop id="kity_stop_18" offset="0" stop-color="rgb(255, 255, 255)"></stop><stop id="kity_stop_19" offset="1" stop-color="rgb(204, 204, 204)"></stop></linearGradient><marker id="kity_marker_2" orient="auto" refX="6" refY="0" viewBox="-7 -7 14 14" markerWidth="7" markerHeight="7" markerUnits="userSpaceOnUse"><path id="kity_path_3" fill="rgb(115, 161, 191)" stroke="none" d="M6,0A6,6,0,1,1,-6,0A6,6,0,1,1,6,0"></path></marker></defs><g id="kity_g_8"><g id="minder1" text-rendering="optimize-speed"><g id="minder_connect_group1"><path id="kity_path_31" fill="none" stroke="rgb(115, 161, 191)" stroke-width="1" d="M502.00000616163015,256.5000044628978A167.5,1,0,0,1,669.5000061616302,255.50000446289778"></path><path id="kity_path_43" fill="none" stroke="rgb(115, 161, 191)" stroke-width="1" d="M502.00000616163015,256.5000044628978A245.5,0,0,0,1,256.50000616163015,256.5000044628978"></path><path id="kity_path_45" fill="none" stroke="rgb(115, 161, 191)" stroke-width="1" d="M152.50000616163015,256.5000044628978C117.00000616163015,256.5000044628978,117.00000616163015,266.5000044628978,81.50000616163015,266.5000044628978L19.500006161630154,266.5000044628978"></path><path id="kity_path_99" fill="none" stroke="rgb(115, 161, 191)" stroke-width="1" d="M1075.5000061616302,113.50000446289778C1087.5000061616302,113.50000446289778,1087.5000061616302,45.50000446289778,1099.5000061616302,45.50000446289778L1231.5000061616302,45.50000446289778"></path><path id="kity_path_100" fill="none" stroke="rgb(115, 161, 191)" stroke-width="1" d="M1075.5000061616302,113.50000446289778C1091.0000061616302,113.50000446289778,1091.0000061616302,146.50000446289778,1106.5000061616302,146.50000446289778L1234.5000061616302,146.50000446289778"></path><path id="kity_path_101" fill="none" stroke="rgb(115, 161, 191)" stroke-width="1" d="M888.5000061616302,255.50000446289778C904.5000061616302,255.50000446289778,904.5000061616302,113.50000446289778,920.5000061616302,113.50000446289778L1075.5000061616302,113.50000446289778"></path><path id="kity_path_102" fill="none" stroke="rgb(115, 161, 191)" stroke-width="1" d="M1025.5000061616302,262.5000044628978C1048.0000061616302,262.5000044628978,1048.0000061616302,262.5000044628978,1070.5000061616302,262.5000044628978L1124.5000061616302,262.5000044628978"></path><path id="kity_path_103" fill="none" stroke="rgb(115, 161, 191)" stroke-width="1" d="M888.5000061616302,255.50000446289778C911.5000061616302,255.50000446289778,911.5000061616302,262.5000044628978,934.5000061616302,262.5000044628978L1025.5000061616302,262.5000044628978"></path><path id="kity_path_105" fill="none" stroke="rgb(115, 161, 191)" stroke-width="1" d="M888.5000061616302,255.50000446289778C911.5000061616302,255.50000446289778,911.5000061616302,370.5000044628978,934.5000061616302,370.5000044628978L1070.5000061616302,370.5000044628978"></path><path id="kity_path_113" fill="none" stroke="rgb(115, 161, 191)" stroke-width="1" d="M1070.5000061616302,370.5000044628978C1085.5000061616302,370.5000044628978,1085.5000061616302,370.5000044628978,1100.5000061616302,370.5000044628978L1387.5000061616302,370.5000044628978"></path></g><g id="minder_node1"><path id="node_outline1" fill="rgb(115, 161, 191)" stroke="rgb(57, 80, 96)" d="M461.50000616163015,236.50000446289778h81a5,5,0,0,1,5,5v30a5,5,0,0,1,-5,5h-81a5,5,0,0,1,-5,-5v-30a5,5,0,0,1,5,-5z" stroke-width="3"></path><g id="node_text1" fill="white"><text id="kity_text_22" text-rendering="inherit" font-size="16" dy=".8em" y="246.100004427135" x="480.50000616163015">Claire</text></g></g><g id="kity_g_12" display="none"><path id="kity_path_13" fill="none" stroke="none" d="M480.50000616163015,256.5000044628978h0v0h0z"></path></g><g id="kity_g_14" display="none"><path id="kity_path_15" fill="none" stroke="none" d="M480.50000616163015,256.5000044628978h0v0h0z"></path><path id="kity_path_16" fill="none" stroke="none"></path></g><g id="minder_node2" opacity="1"><g id="node_expander6" style="cursor: pointer;"><path id="kity_path_86" fill="white" stroke="gray" d="M670.5000089034438,255.50000444799662A6,6,0,1,1,658.5000089034438,255.50000444799662A6,6,0,1,1,670.5000089034438,255.50000444799662"></path><path id="kity_path_87" fill="none" stroke="gray" d="M660.0000089034438,255.50000444799662L669.0000089034438,255.50000444799662"></path></g><path id="node_outline7" fill="rgb(238, 243, 246)" stroke="rgb(115, 161, 191)" d="M674.5000093057752,242.50000444799662h211a3,3,0,0,1,3,3v20a3,3,0,0,1,-3,3h-211a3,3,0,0,1,-3,-3v-20a3,3,0,0,1,3,-3z" stroke-width="1"></path><g id="node_text7" fill="black"><text id="kity_text_57" text-rendering="inherit" font-size="14" dy=".8em" y="246.40000441670418" x="691.5000093057752">Back-End（Alexa-Admin）</text></g></g><g id="minder_node8"><g id="node_expander8" style="cursor: pointer;"><path id="kity_path_92" fill="white" stroke="gray" d="M267.50000289827585,256.5000044628978A6,6,0,1,1,255.50000289827585,256.5000044628978A6,6,0,1,1,267.50000289827585,256.5000044628978"></path><path id="kity_path_93" fill="none" stroke="gray" d="M257.00000289827585,256.5000044628978L266.00000289827585,256.5000044628978"></path></g><path id="node_outline9" fill="rgb(238, 243, 246)" stroke="rgb(115, 161, 191)" d="M155.5000015720725,243.50000446289778h96a3,3,0,0,1,3,3v20a3,3,0,0,1,-3,3h-96a3,3,0,0,1,-3,-3v-20a3,3,0,0,1,3,-3z" stroke-width="1"></path><g id="node_text9" fill="black"><text id="kity_text_61" text-rendering="inherit" font-size="14" dy=".8em" y="247.40000443160534" x="172.5000015720725">Font-End</text></g></g><g id="minder_node9"><g id="node_expander7" style="cursor: pointer;" display="none"><path id="kity_path_89" fill="white" stroke="gray" d="M83.50000015646219,252.50000440329313A6,6,0,1,1,71.50000015646219,252.50000440329313A6,6,0,1,1,83.50000015646219,252.50000440329313"></path><path id="kity_path_90" fill="none" stroke="gray"></path></g><path id="node_outline8" fill="none" stroke="none" d="M24.499999441206455,241.50000440329313h42a5,5,0,0,1,5,5v12a5,5,0,0,1,-5,5h-42a5,5,0,0,1,-5,-5v-12a5,5,0,0,1,5,-5z"></path><g id="node_text8" fill="black"><text id="kity_text_59" text-rendering="inherit" font-size="12" dy=".8em" y="244.70000437647104" x="29.499999441206455">VIEW</text></g></g><g id="minder_node4"><g id="node_expander1" style="cursor: pointer;" display="none"><path id="kity_path_71" fill="white" stroke="gray" d="M1109.5000154450536,31.50000111013651A6,6,0,1,1,1097.5000154450536,31.50000111013651A6,6,0,1,1,1109.5000154450536,31.50000111013651"></path><path id="kity_path_72" fill="none" stroke="gray"></path></g><path id="node_outline2" fill="none" stroke="none" d="M1114.5000156834722,20.50000111013651h112a5,5,0,0,1,5,5v12a5,5,0,0,1,-5,5h-112a5,5,0,0,1,-5,-5v-12a5,5,0,0,1,5,-5z"></path><g id="node_text2" fill="black"><text id="kity_text_47" text-rendering="inherit" font-size="12" dy=".8em" y="23.70000108331442" x="1119.5000156834722">爬取深度（page）</text></g></g><g id="minder_node5"><g id="node_expander2" style="cursor: pointer;" display="none"><path id="kity_path_74" fill="white" stroke="gray" d="M1116.5000155493617,132.5000026151538A6,6,0,1,1,1104.5000155493617,132.5000026151538A6,6,0,1,1,1116.5000155493617,132.5000026151538"></path><path id="kity_path_75" fill="none" stroke="gray"></path></g><path id="node_outline3" fill="none" stroke="none" d="M1121.5000157877803,121.50000261515379h108a5,5,0,0,1,5,5v12a5,5,0,0,1,-5,5h-108a5,5,0,0,1,-5,-5v-12a5,5,0,0,1,5,-5z"></path><g id="node_text3" fill="black"><text id="kity_text_49" text-rendering="inherit" font-size="12" dy=".8em" y="124.7000025883317" x="1126.5000157877803">爬取数量（limit）</text></g></g><g id="minder_node3"><g id="node_expander3" style="cursor: pointer;"><path id="kity_path_77" fill="white" stroke="gray" d="M930.5000127777457,99.50000212341547A6,6,0,1,1,918.5000127777457,99.50000212341547A6,6,0,1,1,930.5000127777457,99.50000212341547"></path><path id="kity_path_78" fill="none" stroke="gray" d="M920.0000127777457,99.50000212341547L929.0000127777457,99.50000212341547"></path></g><path id="node_outline4" fill="none" stroke="none" d="M935.5000130161643,88.50000212341547h135a5,5,0,0,1,5,5v12a5,5,0,0,1,-5,5h-135a5,5,0,0,1,-5,-5v-12a5,5,0,0,1,5,-5z" stroke-width="3"></path><g id="node_text4" fill="black"><text id="kity_text_51" text-rendering="inherit" font-size="12" dy=".8em" y="91.70000209659338" x="940.5000130161643">自动爬取（URL loop）</text></g></g><g id="minder_node7"><g id="node_expander4" style="cursor: pointer;" display="none"><path id="kity_path_80" fill="white" stroke="gray" d="M1080.50001501292,248.5000043436885A6,6,0,1,1,1068.50001501292,248.5000043436885A6,6,0,1,1,1080.50001501292,248.5000043436885"></path><path id="kity_path_81" fill="none" stroke="gray"></path></g><path id="node_outline5" fill="none" stroke="none" d="M1085.5000152513385,237.5000043436885h34a5,5,0,0,1,5,5v12a5,5,0,0,1,-5,5h-34a5,5,0,0,1,-5,-5v-12a5,5,0,0,1,5,-5z"></path><g id="node_text5" fill="black"><text id="kity_text_53" text-rendering="inherit" font-size="12" dy=".8em" y="240.7000043168664" x="1090.5000152513385">同上</text></g></g><g id="minder_node6"><g id="node_expander5" style="cursor: pointer;"><path id="kity_path_83" fill="white" stroke="gray" d="M944.500012986362,248.5000043436885A6,6,0,1,1,932.500012986362,248.5000043436885A6,6,0,1,1,944.500012986362,248.5000043436885"></path><path id="kity_path_84" fill="none" stroke="gray" d="M934.000012986362,248.5000043436885L943.000012986362,248.5000043436885"></path></g><path id="node_outline6" fill="none" stroke="none" d="M949.5000132247806,237.5000043436885h71a5,5,0,0,1,5,5v12a5,5,0,0,1,-5,5h-71a5,5,0,0,1,-5,-5v-12a5,5,0,0,1,5,-5z" stroke-width="3"></path><g id="node_text6" fill="black"><text id="kity_text_55" text-rendering="inherit" font-size="12" dy=".8em" y="240.7000043168664" x="954.5000132247806">可视化爬取</text></g></g><g id="minder_node10" opacity="1"><g id="node_expander9" style="cursor: pointer;"><path id="kity_path_110" fill="white" stroke="gray" d="M944.500012986362,356.5000059530139A6,6,0,1,1,932.500012986362,356.5000059530139A6,6,0,1,1,944.500012986362,356.5000059530139"></path><path id="kity_path_111" fill="none" stroke="gray" d="M934.000012986362,356.5000059530139L943.000012986362,356.5000059530139"></path></g><path id="node_outline10" fill="none" stroke="none" d="M949.5000132247806,345.5000059530139h116a5,5,0,0,1,5,5v12a5,5,0,0,1,-5,5h-116a5,5,0,0,1,-5,-5v-12a5,5,0,0,1,5,-5z" stroke-width="3"></path><g id="node_text10" fill="black"><text id="kity_text_107" text-rendering="inherit" font-size="12" dy=".8em" y="348.7000059261918" x="954.5000132247806">Mode（引用方式）</text></g></g><g id="minder_node11"><g id="node_expander10" style="cursor: pointer;" display="none"><path id="kity_path_118" fill="white" stroke="gray" d="M1110.5000154599547,356.5000059530139A6,6,0,1,1,1098.5000154599547,356.5000059530139A6,6,0,1,1,1110.5000154599547,356.5000059530139"></path><path id="kity_path_119" fill="none" stroke="gray"></path></g><path id="node_outline11" fill="none" stroke="none" d="M1115.5000156983733,345.5000059530139h267a5,5,0,0,1,5,5v12a5,5,0,0,1,-5,5h-267a5,5,0,0,1,-5,-5v-12a5,5,0,0,1,5,-5z" stroke-width="3"></path><g id="node_text11" fill="black"><text id="kity_text_115" text-rendering="inherit" font-size="12" dy=".8em" y="348.7000059261918" x="1120.5000156983733">URL入库（以文章的方式：update post table）</text></g></g></g></g></svg>